<svg width="29" height="30" viewBox="0 0 29 30" fill="none" xmlns="http://www.w3.org/2000/svg">
<path d="M23.5556 20.8571V14.6667C22.9444 14.7857 22.3333 14.9048 21.7222 14.9048H21.1111V22.0476H8.88889V13.7143C8.88889 10.381 11.5778 7.7619 15 7.7619C15.1222 6.21429 15.8556 4.90476 16.8333 3.83333C16.4667 3.35714 15.7333 3 15 3C13.6556 3 12.5556 4.07143 12.5556 5.38095V5.7381C8.88889 6.80952 6.44444 10.0238 6.44444 13.7143V20.8571L4 23.2381V24.4286H26V23.2381L23.5556 20.8571ZM12.5556 25.619C12.5556 26.9286 13.6556 28 15 28C16.3444 28 17.4444 26.9286 17.4444 25.619H12.5556ZM26 8.35714C26 10.619 24.0444 12.5238 21.7222 12.5238C19.4 12.5238 17.4444 10.619 17.4444 8.35714C17.4444 6.09524 19.4 4.19048 21.7222 4.19048C24.0444 4.19048 26 6.09524 26 8.35714Z" fill="#16423C"/>
</svg>
