<svg width="328" height="80" viewBox="0 0 328 80" fill="none" xmlns="http://www.w3.org/2000/svg">
<g filter="url(#filter0_d_1_706)">
<mask id="path-1-inside-1_1_706" fill="white">
<path d="M4 10C4 5.58172 7.58172 2 12 2H316C320.418 2 324 5.58172 324 10V65.8335C324 70.2518 320.418 73.8335 316 73.8335H12C7.58171 73.8335 4 70.2518 4 65.8335V10Z"/>
</mask>
<path d="M4 2H324H4ZM324 65.8335C324 71.3563 319.523 75.8335 314 75.8335H14C8.47715 75.8335 4 71.3563 4 65.8335C4 69.1472 7.58172 71.8335 12 71.8335H316C320.418 71.8335 324 69.1472 324 65.8335ZM4 73.8335V2V73.8335ZM324 2V73.8335V2Z" fill="#E9EFEC" mask="url(#path-1-inside-1_1_706)"/>
<path d="M59.076 42V31.0909H66.1712V32.7475H61.0522V35.7092H65.8036V37.3658H61.0522V40.3434H66.2138V42H59.076ZM71.1383 42.1438C70.4956 42.1438 69.9203 41.9787 69.4125 41.6484C68.9047 41.3182 68.5034 40.8388 68.2086 40.2102C67.9139 39.5817 67.7665 38.8182 67.7665 37.9197C67.7665 37.0107 67.9157 36.2436 68.214 35.6186C68.5158 34.9901 68.9224 34.516 69.4338 34.1964C69.9451 33.8732 70.5151 33.7116 71.1436 33.7116C71.623 33.7116 72.0172 33.7933 72.3262 33.9567C72.6351 34.1165 72.8801 34.31 73.0613 34.5373C73.2424 34.761 73.3826 34.9723 73.4821 35.1712H73.562V31.0909H75.4956V42H73.5993V40.7109H73.4821C73.3826 40.9098 73.2388 41.1211 73.0506 41.3448C72.8624 41.565 72.6138 41.7532 72.3049 41.9094C71.9959 42.0657 71.6071 42.1438 71.1383 42.1438ZM71.6763 40.5618C72.0847 40.5618 72.4327 40.4517 72.7203 40.2315C73.008 40.0078 73.2264 39.6971 73.3755 39.2994C73.5247 38.9016 73.5993 38.4382 73.5993 37.9091C73.5993 37.38 73.5247 36.9201 73.3755 36.5295C73.2299 36.1388 73.0133 35.8352 72.7257 35.6186C72.4416 35.402 72.0918 35.2937 71.6763 35.2937C71.2466 35.2937 70.888 35.4055 70.6003 35.6293C70.3127 35.853 70.0961 36.1619 69.9505 36.5561C69.8049 36.9503 69.7321 37.4013 69.7321 37.9091C69.7321 38.4205 69.8049 38.8768 69.9505 39.2781C70.0996 39.6758 70.318 39.9901 70.6056 40.2209C70.8968 40.4482 71.2537 40.5618 71.6763 40.5618ZM77.5503 42V33.8182H79.4786V42H77.5503ZM78.5198 32.657C78.2144 32.657 77.9516 32.5558 77.7314 32.3533C77.5113 32.1474 77.4012 31.9006 77.4012 31.6129C77.4012 31.3217 77.5113 31.0749 77.7314 30.8725C77.9516 30.6665 78.2144 30.5636 78.5198 30.5636C78.8287 30.5636 79.0915 30.6665 79.3081 30.8725C79.5283 31.0749 79.6384 31.3217 79.6384 31.6129C79.6384 31.9006 79.5283 32.1474 79.3081 32.3533C79.0915 32.5558 78.8287 32.657 78.5198 32.657ZM85.5471 33.8182V35.3097H80.8436V33.8182H85.5471ZM82.0048 31.858H83.9331V39.5391C83.9331 39.7983 83.9721 39.9972 84.0502 40.1357C84.1319 40.2706 84.2385 40.3629 84.3699 40.4126C84.5012 40.4624 84.6468 40.4872 84.8066 40.4872C84.9274 40.4872 85.0375 40.4783 85.1369 40.4606C85.2399 40.4428 85.318 40.4268 85.3713 40.4126L85.6962 41.9201C85.5932 41.9556 85.4458 41.9947 85.2541 42.0373C85.0659 42.0799 84.835 42.1048 84.5616 42.1119C84.0787 42.1261 83.6436 42.0533 83.2566 41.8935C82.8695 41.7301 82.5623 41.478 82.335 41.1371C82.1113 40.7962 82.0012 40.37 82.0048 39.8587V31.858ZM90.9656 42V31.0909H95.0566C95.8946 31.0909 96.5977 31.2472 97.1659 31.5597C97.7377 31.8722 98.1691 32.3018 98.4603 32.8487C98.7551 33.392 98.9024 34.0099 98.9024 34.7024C98.9024 35.402 98.7551 36.0234 98.4603 36.5668C98.1656 37.1101 97.7306 37.538 97.1553 37.8505C96.58 38.1594 95.8715 38.3139 95.0299 38.3139H92.3186V36.6893H94.7636C95.2536 36.6893 95.6549 36.604 95.9674 36.4336C96.2799 36.2631 96.5107 36.0288 96.6599 35.7305C96.8126 35.4322 96.8889 35.0895 96.8889 34.7024C96.8889 34.3153 96.8126 33.9744 96.6599 33.6797C96.5107 33.3849 96.2781 33.1559 95.9621 32.9925C95.6496 32.8256 95.2465 32.7422 94.7529 32.7422H92.9419V42H90.9656ZM100.534 42V33.8182H102.403V35.1818H102.489C102.638 34.7095 102.893 34.3455 103.256 34.0898C103.621 33.8306 104.039 33.701 104.507 33.701C104.614 33.701 104.733 33.7063 104.864 33.717C104.999 33.7241 105.111 33.7365 105.2 33.7543V35.5281C105.118 35.4996 104.989 35.4748 104.811 35.4535C104.637 35.4286 104.468 35.4162 104.305 35.4162C103.953 35.4162 103.637 35.4925 103.357 35.6452C103.08 35.7944 102.862 36.0021 102.702 36.2685C102.542 36.5348 102.462 36.842 102.462 37.19V42H100.534ZM109.713 42.1598C108.914 42.1598 108.222 41.984 107.636 41.6325C107.05 41.2809 106.595 40.7891 106.272 40.157C105.952 39.5249 105.793 38.7862 105.793 37.9411C105.793 37.0959 105.952 36.3555 106.272 35.7198C106.595 35.0842 107.05 34.5906 107.636 34.239C108.222 33.8874 108.914 33.7116 109.713 33.7116C110.512 33.7116 111.204 33.8874 111.79 34.239C112.376 34.5906 112.829 35.0842 113.149 35.7198C113.472 36.3555 113.633 37.0959 113.633 37.9411C113.633 38.7862 113.472 39.5249 113.149 40.157C112.829 40.7891 112.376 41.2809 111.79 41.6325C111.204 41.984 110.512 42.1598 109.713 42.1598ZM109.724 40.6151C110.157 40.6151 110.519 40.4961 110.81 40.2582C111.101 40.0167 111.318 39.6935 111.46 39.2887C111.606 38.8839 111.679 38.4329 111.679 37.9357C111.679 37.435 111.606 36.9822 111.46 36.5774C111.318 36.169 111.101 35.8441 110.81 35.6026C110.519 35.3612 110.157 35.2404 109.724 35.2404C109.28 35.2404 108.91 35.3612 108.616 35.6026C108.324 35.8441 108.106 36.169 107.96 36.5774C107.818 36.9822 107.747 37.435 107.747 37.9357C107.747 38.4329 107.818 38.8839 107.96 39.2887C108.106 39.6935 108.324 40.0167 108.616 40.2582C108.91 40.4961 109.28 40.6151 109.724 40.6151ZM119.414 33.8182V35.3097H114.578V33.8182H119.414ZM115.787 42V33.0458C115.787 32.4954 115.9 32.0373 116.128 31.6715C116.358 31.3058 116.667 31.0323 117.055 30.8512C117.442 30.6701 117.871 30.5795 118.344 30.5795C118.677 30.5795 118.974 30.6062 119.233 30.6594C119.492 30.7127 119.684 30.7607 119.808 30.8033L119.425 32.2947C119.343 32.2699 119.24 32.245 119.116 32.2202C118.992 32.1918 118.853 32.1776 118.7 32.1776C118.342 32.1776 118.088 32.2646 117.939 32.4386C117.793 32.609 117.72 32.854 117.72 33.1737V42H115.787ZM120.924 42V33.8182H122.853V42H120.924ZM121.894 32.657C121.588 32.657 121.326 32.5558 121.105 32.3533C120.885 32.1474 120.775 31.9006 120.775 31.6129C120.775 31.3217 120.885 31.0749 121.105 30.8725C121.326 30.6665 121.588 30.5636 121.894 30.5636C122.203 30.5636 122.466 30.6665 122.682 30.8725C122.902 31.0749 123.012 31.3217 123.012 31.6129C123.012 31.9006 122.902 32.1474 122.682 32.3533C122.466 32.5558 122.203 32.657 121.894 32.657ZM126.764 31.0909V42H124.835V31.0909H126.764Z" fill="#16423C"/>
<path d="M38.0036 33.6069C39.0005 32.562 39.3802 31.0347 38.5293 29.8562C38.2062 29.4115 37.8541 28.9909 37.4753 28.5973C37.0995 28.2005 36.698 27.8314 36.2737 27.4926C35.1487 26.6018 33.6908 26.9995 32.6934 28.0438L24.7525 36.3634C24.4727 36.6566 24.2808 37.0284 24.2433 37.4412C24.1784 38.1407 24.1193 39.4486 24.2546 41.478C24.2895 41.9976 24.6841 42.411 25.18 42.4476C27.1173 42.5893 28.3657 42.5273 29.0339 42.4599C29.4274 42.4201 29.7824 42.219 30.0622 41.9264L38.0036 33.6069Z" stroke="#16423C" stroke-width="1.5" stroke-linecap="round" stroke-linejoin="round"/>
<path d="M36.8005 34.8675C36.5063 34.1858 35.8705 33.0299 34.5577 31.654C33.2449 30.2793 32.1416 29.6127 31.4908 29.3044" stroke="#16423C" stroke-width="1.5" stroke-linecap="round" stroke-linejoin="round"/>
<path d="M38.5624 37.6549C38.5716 37.8429 38.5762 38.032 38.5762 38.2223C38.5762 44.175 33.9703 49.0003 28.2881 49.0003C22.606 49.0003 18 44.175 18 38.2223C18 32.2696 22.606 27.4443 28.2881 27.4443C28.4697 27.4443 28.6502 27.4497 28.8298 27.4588" stroke="#16423C" stroke-width="1.5" stroke-linecap="round" stroke-linejoin="round"/>
</g>
<defs>
<filter id="filter0_d_1_706" x="0" y="0" width="328" height="79.8335" filterUnits="userSpaceOnUse" color-interpolation-filters="sRGB">
<feFlood flood-opacity="0" result="BackgroundImageFix"/>
<feColorMatrix in="SourceAlpha" type="matrix" values="0 0 0 0 0 0 0 0 0 0 0 0 0 0 0 0 0 0 127 0" result="hardAlpha"/>
<feOffset dy="2"/>
<feGaussianBlur stdDeviation="2"/>
<feComposite in2="hardAlpha" operator="out"/>
<feColorMatrix type="matrix" values="0 0 0 0 0 0 0 0 0 0 0 0 0 0 0 0 0 0 0.25 0"/>
<feBlend mode="normal" in2="BackgroundImageFix" result="effect1_dropShadow_1_706"/>
<feBlend mode="normal" in="SourceGraphic" in2="effect1_dropShadow_1_706" result="shape"/>
</filter>
</defs>
</svg>
