<svg width="64" height="64" viewBox="0 0 64 64" fill="none" xmlns="http://www.w3.org/2000/svg">
<rect width="64" height="64" rx="32" fill="#16423C"/>
<g clip-path="url(#clip0_109_14)">
<path d="M34.2 28.8H43V33.2H34.2V42H29.8V33.2H21V28.8H29.8V20H34.2V28.8ZM32 53C26.1652 53 20.5695 50.6822 16.4437 46.5564C12.3179 42.4305 10 36.8348 10 31C10 25.1652 12.3179 19.5695 16.4437 15.4437C20.5695 11.3179 26.1652 9 32 9C37.8348 9 43.4305 11.3179 47.5564 15.4437C51.6822 19.5695 54 25.1652 54 31C54 36.8348 51.6822 42.4305 47.5564 46.5564C43.4305 50.6822 37.8348 53 32 53ZM32 48.6C36.6678 48.6 41.1444 46.7457 44.4451 43.4451C47.7457 40.1444 49.6 35.6678 49.6 31C49.6 26.3322 47.7457 21.8556 44.4451 18.5549C41.1444 15.2543 36.6678 13.4 32 13.4C27.3322 13.4 22.8556 15.2543 19.5549 18.5549C16.2543 21.8556 14.4 26.3322 14.4 31C14.4 35.6678 16.2543 40.1444 19.5549 43.4451C22.8556 46.7457 27.3322 48.6 32 48.6Z" fill="#F1F0E9"/>
</g>
<defs>
<clipPath id="clip0_109_14">
<rect width="44" height="44" fill="white" transform="translate(10 9)"/>
</clipPath>
</defs>
</svg>
