<svg width="24" height="24" viewBox="0 0 24 24" fill="none" xmlns="http://www.w3.org/2000/svg">
<path d="M18.9203 20.154L12.895 13.892C12.4139 14.318 11.8607 14.6477 11.2352 14.881C10.6098 15.1144 9.98118 15.231 9.34934 15.231C7.80854 15.231 6.50444 14.6767 5.43704 13.568C4.36964 12.4587 3.83594 11.1037 3.83594 9.50304C3.83594 7.90238 4.369 6.54671 5.43511 5.43604C6.50187 4.32471 7.80533 3.76904 9.34549 3.76904C10.8863 3.76904 12.191 4.32371 13.2597 5.43304C14.3284 6.54238 14.8627 7.89804 14.8627 9.50004C14.8627 10.1947 14.7444 10.867 14.5077 11.517C14.2703 12.167 13.9592 12.723 13.5744 13.185L19.5996 19.446L18.9203 20.154ZM9.34934 14.23C10.6259 14.23 11.7038 13.7734 12.5833 12.86C13.4621 11.9467 13.9015 10.8264 13.9015 9.49904C13.9015 8.17238 13.4621 7.05238 12.5833 6.13904C11.7045 5.22571 10.6268 4.76904 9.3503 4.76904C8.07378 4.76904 6.9958 5.22571 6.11635 6.13904C5.23754 7.05238 4.79814 8.17238 4.79814 9.49904C4.79814 10.8257 5.23754 11.9457 6.11635 12.859C6.99516 13.7724 8.07282 14.23 9.34934 14.23Z" fill="#16423C"/>
</svg>
